# xmcd
#
# Track frame offsets: 
#        183
#        21188
#        45605
#        68338
#        86390
#        109048
#        124088
#        140718
#        155283
#        176265
#        201213
#        227795
#        254383
#        267873
#
# Disc length: 3757 seconds
#
# Revision: 4
# Processed by: cddbd v1.5.2PL0 Copyright (c) Steve Scherf et al.
# Submitted via: ExactAudioCopy v1.1
#
DISCID=b40eab0e
DTITLE=BOB SEGER and THE SILVER BULLET BAND - Greatest Hits
DYEAR=1994
DGENRE=Rock
TTITLE0=Roll Me Away
TTITLE1=Night Moves
TTITLE2=Turn The Page
TTITLE3=You'll Accomp'ny Me
TTITLE4=Hollywood Nights
TTITLE5=Still The Same
TTITLE6=Mainstreet
TTITLE7=Old Time Rock and Roll
TTITLE8=We've Got Tonight
TTITLE9=Against The Wind
TTITLE10=The Fire Inside
TTITLE11=Like A Rock
TTITLE12=C'est La Vie
TTITLE13=In Your Time
EXTD=YEAR: 1994
EXTT0=
EXTT1=
EXTT2=
EXTT3=
EXTT4=
EXTT5=
EXTT6=
EXTT7=
EXTT8=
EXTT9=
EXTT10=
EXTT11=
EXTT12=
EXTT13=
PLAYORDER=
